<svg width="520" height="146" viewBox="0 0 520 146" fill="none" xmlns="http://www.w3.org/2000/svg" role="img" aria-labelledby="title desc">
  <title id="title">ORISUS Zahnmedizin</title>
  <desc id="desc">Regulaeres Orisus Zahnmedizin Logo</desc>
  <g fill="#F3F2E8">
    <path d="M38.6 77.9C17.4 77.9 0 60.5 0 39.3S17.4.7 38.6.7c17.1 0 31.7 11.1 36.7 26.6H55.2c-3.9-5.5-9.9-8.7-16.6-8.7-11.3 0-20.6 9.3-20.6 20.7 0 11.5 9.3 20.8 20.6 20.8 6.8 0 12.8-3.3 16.7-8.8h20C70.4 66.8 55.7 77.9 38.6 77.9Z"/>
    <path d="M0 35.1h76.9v8.4H0v-8.4Z"/>
    <path d="M104.6 4.1h47.1c8.7 0 15.6 2.4 20.6 7.2 5 4.8 7.5 11.2 7.5 19.1 0 6.1-1.6 11.2-4.9 15.5-3.2 4.2-7.7 7.1-13.5 8.8l20.3 21.8h-23.5l-18.3-20.4h-16.4v20.4h-18.9V4.1Zm45.2 34.7c3.3 0 5.9-.8 7.8-2.3 1.9-1.6 2.9-3.7 2.9-6.5s-1-5-2.9-6.5c-1.9-1.6-4.5-2.3-7.8-2.3h-26.3v17.6h26.3Z"/>
    <path d="M205.2 4.1h19.1v72.4h-19.1V4.1Z"/>
    <path d="M280.8 78.2c-8.4 0-16.2-1.2-23.6-3.6-7.3-2.4-13.4-5.8-18.1-10.2l10.9-13.9c4.2 3.5 9.1 6.2 14.8 8.1 5.7 1.9 11.3 2.9 16.9 2.9 5.8 0 10.2-.7 13.1-2.2 2.9-1.5 4.4-3.5 4.4-6.1 0-2.5-1.3-4.4-4-5.6-2.6-1.2-7.3-2.2-13.9-2.9l-8.7-.8c-10.3-1-18.1-3.2-23.4-6.6-5.3-3.5-8-8.3-8-14.6 0-6.6 3.1-11.9 9.3-15.9C256.8 2.6 265.3.6 276 .6c7.1 0 13.8.8 20.2 2.4 6.4 1.6 12.2 4 17.3 7.1l-9.6 14.5c-4.2-2.6-8.8-4.5-13.7-5.8-4.9-1.3-9.8-1.9-14.7-1.9-5.1 0-9 .6-11.6 1.8-2.6 1.2-3.9 3-3.9 5.2 0 2.2 1.2 3.9 3.7 5 2.5 1.1 6.8 1.9 12.9 2.5l8.7.8c10.9 1 19.1 3.4 24.6 7.2 5.5 3.7 8.3 8.8 8.3 15.3 0 7.3-3.2 13-9.6 17.2-6.4 4.2-15.7 6.3-27.8 6.3Z"/>
    <path d="M363.3 78.2c-11.1 0-19.8-2.8-26.1-8.4-6.3-5.6-9.5-13.5-9.5-23.8V4.1h19.1v40.7c0 5.2 1.5 9.2 4.4 12 2.9 2.8 7 4.2 12.2 4.2s9.3-1.4 12.2-4.2c2.9-2.8 4.4-6.8 4.4-12V4.1h19.1V46c0 10.3-3.2 18.2-9.5 23.8-6.4 5.6-15.1 8.4-26.3 8.4Z"/>
    <path d="M450.4 78.2c-8.4 0-16.2-1.2-23.6-3.6-7.3-2.4-13.4-5.8-18.1-10.2l10.9-13.9c4.2 3.5 9.1 6.2 14.8 8.1 5.7 1.9 11.3 2.9 16.9 2.9 5.8 0 10.2-.7 13.1-2.2 2.9-1.5 4.4-3.5 4.4-6.1 0-2.5-1.3-4.4-4-5.6-2.6-1.2-7.3-2.2-13.9-2.9l-8.7-.8c-10.3-1-18.1-3.2-23.4-6.6-5.3-3.5-8-8.3-8-14.6 0-6.6 3.1-11.9 9.3-15.9 6.2-4.1 14.7-6.1 25.4-6.1 7.1 0 13.8.8 20.2 2.4 6.4 1.6 12.2 4 17.3 7.1l-9.6 14.5c-4.2-2.6-8.8-4.5-13.7-5.8-4.9-1.3-9.8-1.9-14.7-1.9-5.1 0-9 .6-11.6 1.8-2.6 1.2-3.9 3-3.9 5.2 0 2.2 1.2 3.9 3.7 5 2.5 1.1 6.8 1.9 12.9 2.5l8.7.8c10.9 1 19.1 3.4 24.6 7.2 5.5 3.7 8.3 8.8 8.3 15.3 0 7.3-3.2 13-9.6 17.2-6.4 4.2-15.6 6.3-27.7 6.3Z"/>
  </g>
  <g fill="#F3F2E8" opacity=".82">
    <path d="M3.8 118.8h38.1v6.9H14.8l27.1 20.2v6.6H2.5v-6.9h27.4L2.5 125.1v-6.3h1.3Z"/>
    <path d="M71.6 118.8h7.8l18.2 33.7h-8.1l-3.6-7.1H64.8l-3.6 7.1h-7.9l18.3-33.7Zm11 20.4-7.2-14.2-7.3 14.2h14.5Z"/>
    <path d="M129.4 153.1c-5.4 0-9.9-1.7-13.4-5-3.5-3.3-5.3-7.5-5.3-12.6s1.8-9.3 5.3-12.6c3.5-3.3 8-5 13.5-5 4.1 0 7.8.9 10.9 2.8 3.1 1.9 5.3 4.4 6.6 7.7h-8.2c-1.9-2.5-5-3.8-9.1-3.8-3.4 0-6.1 1-8.2 3.1-2.1 2.1-3.1 4.7-3.1 7.8s1 5.8 3.1 7.8c2.1 2.1 4.8 3.1 8.1 3.1 4.2 0 7.3-1.3 9.4-4h8.1c-1.3 3.4-3.5 6-6.6 7.9-3.1 1.8-6.8 2.8-11.1 2.8Z"/>
    <path d="M168.8 118.8h7.6v13.1h24.5v-13.1h7.6v33.7h-7.6v-13.8h-24.5v13.8h-7.6v-33.7Z"/>
    <path d="M232.4 118.8h10.5l13.4 23.2 13.4-23.2h10.4v33.7h-7.4v-24.3l-13.7 24.3h-5.6l-13.8-24.3v24.3h-7.3v-33.7Z"/>
    <path d="M304.2 118.8h34.6v6.7h-27v6.7h24.8v6.5h-24.8v7.1h27.5v6.7h-35.1v-33.7Z"/>
    <path d="M361.3 118.8h18.5c6.3 0 11.2 1.5 14.8 4.5 3.6 3 5.4 7.1 5.4 12.3s-1.8 9.3-5.4 12.3c-3.6 3-8.5 4.6-14.8 4.6h-18.5v-33.7Zm18.6 26.9c3.9 0 6.9-.9 9.1-2.7 2.2-1.8 3.3-4.3 3.3-7.4s-1.1-5.6-3.3-7.4c-2.2-1.8-5.2-2.7-9.1-2.7h-11v20.2h11Z"/>
    <path d="M421.7 118.8h7.6v33.7h-7.6v-33.7Z"/>
    <path d="M453.5 118.8h34.6v6.7h-27v6.7h24.8v6.5h-24.8v7.1h27.5v6.7h-35.1v-33.7Z"/>
    <path d="M510.6 118.8h7.3v33.7h-7.6l-24.1-24v24h-7.3v-33.7h7.6l24.1 24v-24Z"/>
  </g>
</svg>
