<svg width="430" height="96" viewBox="0 0 430 96" fill="none" xmlns="http://www.w3.org/2000/svg">
  <rect x="2" y="2" width="92" height="92" rx="24" fill="url(#bg)" stroke="#D8E8E5" stroke-width="4"/>
  <path d="M17 48c0-25 20-45 45-45 17 0 32 10 40 24H82c-5-6-12-9-20-9-16 0-29 13-29 30s13 30 29 30c9 0 18-5 23-12h20C98 83 82 93 62 93 37 93 17 73 17 48Z" fill="#fff"/>
  <path d="M17 48c0-9 2-17 7-25h19c-7 7-10 16-10 25 0 8 3 16 9 23H23c-4-7-6-15-6-23Z" fill="#9BD2C1"/>
  <rect x="55" y="58" width="34" height="22" rx="8" fill="#102722"/>
  <text x="61" y="75" fill="#fff" font-family="Inter, Arial, sans-serif" font-size="19" font-weight="900" letter-spacing="-1">bfs</text>
  <path d="M121 34h43c19 0 32 12 32 30s-13 30-32 30h-43V34Zm41 44c9 0 15-5 15-14s-6-14-15-14h-23v28h23Z" fill="#0F766E"/>
  <path d="M206 64c0-18 14-31 33-31s33 13 33 31-14 31-33 31-33-13-33-31Zm47 0c0-9-6-15-14-15s-14 6-14 15 6 15 14 15 14-6 14-15Z" fill="#0F766E"/>
  <path d="M283 34h18v8c5-6 12-9 21-9 17 0 29 12 29 31v30h-18V67c0-10-5-16-14-16-10 0-16 6-16 17v26h-20V34Z" fill="#0F766E"/>
  <path d="M366 78h19c1 4 5 6 12 6 8 0 12-2 12-7 0-5-7-6-16-7-13-2-29-5-29-20 0-12 12-20 31-20 18 0 31 8 33 22h-19c-1-4-5-6-11-6-7 0-11 2-11 6 0 4 7 5 15 6 14 2 30 5 30 21 0 13-13 22-34 22-20 0-33-9-32-23Z" fill="#0F766E"/>
  <text x="121" y="25" fill="#7A7D80" font-family="Inter, Arial, sans-serif" font-size="30" font-weight="300" letter-spacing="7">ORISUS</text>
  <text x="121" y="91" fill="#667085" font-family="Inter, Arial, sans-serif" font-size="13" font-weight="800" letter-spacing="4">BFS MONITOR</text>
  <defs>
    <linearGradient id="bg" x1="8" y1="2" x2="92" y2="96" gradientUnits="userSpaceOnUse">
      <stop stop-color="#12867A"/>
      <stop offset=".58" stop-color="#0B766E"/>
      <stop offset="1" stop-color="#082823"/>
    </linearGradient>
  </defs>
</svg>
